<svg width="331" height="56" viewBox="0 0 331 56" fill="none" xmlns="http://www.w3.org/2000/svg">
<path d="M18.2029 14.76V23.7807H40.1533V37.1614H18.2029V54H0.462257V1.37931H43.2354V14.76H18.2029ZM76.061 55.2028C70.398 55.2028 65.3114 54.0251 60.801 51.6697C56.2907 49.3143 52.7576 46.0568 50.2017 41.8972C47.6459 37.6876 46.3679 32.9517 46.3679 27.6897C46.3679 22.4276 47.6459 17.7168 50.2017 13.5572C52.7576 9.34759 56.2907 6.06506 60.801 3.70966C65.3114 1.35425 70.398 0.176554 76.061 0.176554C81.724 0.176554 86.8107 1.35425 91.321 3.70966C95.8314 6.06506 99.3645 9.34759 101.92 13.5572C104.476 17.7168 105.754 22.4276 105.754 27.6897C105.754 32.9517 104.476 37.6876 101.92 41.8972C99.3645 46.0568 95.8314 49.3143 91.321 51.6697C86.8107 54.0251 81.724 55.2028 76.061 55.2028ZM76.061 40.8448C78.2661 40.8448 80.2456 40.3186 81.9997 39.2662C83.8038 38.1637 85.2321 36.6352 86.2845 34.6807C87.3369 32.6761 87.8631 30.3457 87.8631 27.6897C87.8631 25.0336 87.3369 22.7283 86.2845 20.7738C85.2321 18.7692 83.8038 17.2407 81.9997 16.1883C80.2456 15.0857 78.2661 14.5345 76.061 14.5345C73.856 14.5345 71.8514 15.0857 70.0472 16.1883C68.2932 17.2407 66.89 18.7692 65.8376 20.7738C64.7852 22.7283 64.259 25.0336 64.259 27.6897C64.259 30.3457 64.7852 32.6761 65.8376 34.6807C66.89 36.6352 68.2932 38.1637 70.0472 39.2662C71.8514 40.3186 73.856 40.8448 76.061 40.8448ZM139.781 55.2028C134.118 55.2028 129.032 54.0251 124.521 51.6697C120.011 49.3143 116.478 46.0568 113.922 41.8972C111.366 37.6876 110.088 32.9517 110.088 27.6897C110.088 22.4276 111.366 17.7168 113.922 13.5572C116.478 9.34759 120.011 6.06506 124.521 3.70966C129.032 1.35425 134.118 0.176554 139.781 0.176554C145.444 0.176554 150.531 1.35425 155.041 3.70966C159.552 6.06506 163.085 9.34759 165.641 13.5572C168.197 17.7168 169.475 22.4276 169.475 27.6897C169.475 32.9517 168.197 37.6876 165.641 41.8972C163.085 46.0568 159.552 49.3143 155.041 51.6697C150.531 54.0251 145.444 55.2028 139.781 55.2028ZM139.781 40.8448C141.986 40.8448 143.966 40.3186 145.72 39.2662C147.524 38.1637 148.952 36.6352 150.005 34.6807C151.057 32.6761 151.583 30.3457 151.583 27.6897C151.583 25.0336 151.057 22.7283 150.005 20.7738C148.952 18.7692 147.524 17.2407 145.72 16.1883C143.966 15.0857 141.986 14.5345 139.781 14.5345C137.576 14.5345 135.572 15.0857 133.768 16.1883C132.014 17.2407 130.61 18.7692 129.558 20.7738C128.506 22.7283 127.979 25.0336 127.979 27.6897C127.979 30.3457 128.506 32.6761 129.558 34.6807C130.61 36.6352 132.014 38.1637 133.768 39.2662C135.572 40.3186 137.576 40.8448 139.781 40.8448ZM175.913 1.37931H201.848C207.711 1.37931 212.873 2.45678 217.333 4.61173C221.844 6.71655 225.327 9.74851 227.782 13.7076C230.288 17.6667 231.541 22.3274 231.541 27.6897C231.541 33.052 230.288 37.7126 227.782 41.6717C225.327 45.6308 221.844 48.6878 217.333 50.8428C212.873 52.9476 207.711 54 201.848 54H175.913V1.37931ZM201.096 40.1683C204.905 40.1683 207.937 39.0908 210.192 36.9359C212.497 34.7308 213.65 31.6487 213.65 27.6897C213.65 23.7306 212.497 20.6736 210.192 18.5186C207.937 16.3136 204.905 15.211 201.096 15.211H193.654V40.1683H201.096ZM238.019 1.37931H255.76V40.2434H279.514V54H238.019V1.37931ZM310.4 34.9062V54H292.66V34.6807L272.814 1.37931H291.532L302.282 19.571L313.107 1.37931H330.246L310.4 34.9062Z" fill="#24201D"/>
</svg>
