<svg width="104" height="140" viewBox="0 0 104 140" fill="none" xmlns="http://www.w3.org/2000/svg">
<path d="M86.2224 0H5.33326C2.75611 0 0.666504 2.08934 0.666504 4.66676V122.889C0.666504 125.466 2.75584 127.556 5.33326 127.556H13.1109V135.334C13.1109 137.911 15.2003 140 17.7777 140C20.3548 140 22.4444 137.911 22.4444 135.334V127.556H86.2221C95.6571 127.556 103.333 119.88 103.333 110.445V17.1112C103.333 7.67594 95.6573 0 86.2224 0ZM94 110.444C94 114.733 90.511 118.222 86.2224 118.222H10V9.33324H86.2224C90.511 9.33324 94 12.8223 94 17.1109V110.444Z" fill="#24201D"/>
<path d="M78.0327 48.8898C75.2258 46.7157 71.9047 45.4976 68.4747 45.3182C67.7186 42.6194 66.2992 40.1374 64.2908 38.0653C61.0372 34.7083 56.6723 32.8598 52 32.8598C47.3281 32.8598 42.9635 34.7083 39.7101 38.0647C37.7012 40.1371 36.2818 42.6194 35.5257 45.3182C32.0965 45.4973 28.7751 46.7154 25.9696 48.8887C21.7518 52.1549 19.3333 57.0853 19.3333 62.4151C19.3333 70.233 24.6032 76.8433 31.7777 78.8793V90.0288C31.7777 92.6059 33.867 94.6955 36.4445 94.6955H67.5556C70.1328 94.6955 72.2224 92.6062 72.2224 90.0288V78.8793C79.3968 76.8431 84.6668 70.233 84.6668 62.4151C84.6668 57.0853 82.2488 52.1552 78.0327 48.8898ZM67.5556 70.1933C64.9785 70.1933 62.8889 72.2827 62.8889 74.8601V85.3628H41.1112V74.8601C41.1112 72.2829 39.0219 70.1933 36.4445 70.1933C32.1559 70.1933 28.6668 66.7043 28.6668 62.4157C28.6668 59.9944 29.7668 57.7533 31.685 56.2683C33.301 55.0167 35.2919 54.4647 37.2834 54.6834L38.4061 55.8062C39.3175 56.7175 40.5118 57.1731 41.7057 57.1731C42.8998 57.1731 44.0944 56.7175 45.0052 55.8062C46.8277 53.9837 46.8277 51.0289 45.0052 49.2065L44.3542 48.5554C44.6265 47.0578 45.3298 45.6769 46.4115 44.5608C47.8911 43.0342 49.8757 42.1936 51.9998 42.1936C54.1238 42.1936 56.1087 43.0344 57.5886 44.5619C58.67 45.6775 59.373 47.0578 59.6454 48.5557L59.0908 49.1102C57.2684 50.9327 57.2684 53.8874 59.0908 55.7099C60.0022 56.6213 61.1966 57.0768 62.3904 57.0768C63.5845 57.0768 64.7791 56.6213 65.69 55.7099L66.7159 54.684C68.7073 54.4652 70.6993 55.0176 72.3162 56.2696C74.233 57.7538 75.3322 59.9947 75.3322 62.4162C75.3333 66.704 71.8442 70.1933 67.5556 70.1933Z" fill="#24201D"/>
</svg>
