<svg width="25" height="26" viewBox="0 0 25 26" fill="none" xmlns="http://www.w3.org/2000/svg">
<path d="M24.6265 23.6598L18.5691 17.3598C20.1266 15.5083 20.9799 13.1789 20.9799 10.7538C20.9799 5.08774 16.3701 0.477905 10.7041 0.477905C5.03806 0.477905 0.428223 5.08774 0.428223 10.7538C0.428223 16.4198 5.03806 21.0296 10.7041 21.0296C12.8312 21.0296 14.8582 20.388 16.5912 19.1701L22.6946 25.5179C22.9497 25.7828 23.2929 25.9289 23.6606 25.9289C24.0086 25.9289 24.3388 25.7962 24.5894 25.555C25.122 25.0425 25.139 24.1928 24.6265 23.6598ZM10.7041 3.15856C14.8921 3.15856 18.2993 6.56567 18.2993 10.7538C18.2993 14.9418 14.8921 18.3489 10.7041 18.3489C6.51599 18.3489 3.10888 14.9418 3.10888 10.7538C3.10888 6.56567 6.51599 3.15856 10.7041 3.15856Z" fill="black"/>
</svg>
